HIERARCHY
ROOT Hips
{
	OFFSET 0.000000 103.266502 0.000000
	CHANNELS 6 Xposition Yposition Zposition Xrotation Yrotation Zrotation 
	JOINT Spine
	{
		OFFSET -0.002400 12.777504 0.315300
		CHANNELS 3 Xrotation Yrotation Zrotation
		JOINT Spine1
		{
			OFFSET -0.002067 5.816869 0.032633
			CHANNELS 3 Xrotation Yrotation Zrotation
			JOINT Spine1_split
			{
				OFFSET -0.002067 5.816869 0.032633
				CHANNELS 3 Xrotation Yrotation Zrotation
				JOINT Spine2
				{
					OFFSET -0.002067 5.816869 0.032633
					CHANNELS 3 Xrotation Yrotation Zrotation
					JOINT Neck
					{
						OFFSET -0.003700 21.199493 -0.826900
						CHANNELS 3 Xrotation Yrotation Zrotation
						JOINT Head
						{
							OFFSET 0.000000 20.442200 4.834800
							CHANNELS 3 Xrotation Yrotation Zrotation
							JOINT HeadTop_End
							{
								OFFSET 0.000000 34.668396 4.968400
								CHANNELS 3 Xrotation Yrotation Zrotation
								End Site
								{
									OFFSET 0.000000 0.000000 0.000000
								}
							}
						}
					}
					JOINT LeftShoulder
					{
						OFFSET 3.288150 8.794197 -1.372250
						CHANNELS 3 Xrotation Yrotation Zrotation
						JOINT LeftShoulder_split
						{
							OFFSET 3.288150 8.794197 -1.372250
							CHANNELS 3 Xrotation Yrotation Zrotation
							JOINT LeftArm
							{
								OFFSET 11.953299 -2.279007 -0.146200
								CHANNELS 3 Xrotation Yrotation Zrotation
								JOINT LeftForeArm
								{
									OFFSET 18.448900 0.000000 0.000000
									CHANNELS 3 Xrotation Yrotation Zrotation
									JOINT LeftHand
									{
										OFFSET 29.527798 0.000000 0.000000
										CHANNELS 3 Xrotation Yrotation Zrotation
										JOINT LeftHandThumb1
										{
											OFFSET 10.739754 -2.369614 9.225399
											CHANNELS 3 Xrotation Yrotation Zrotation
											JOINT LeftHandThumb2
											{
												OFFSET 4.926170 -2.844131 2.844125
												CHANNELS 3 Xrotation Yrotation Zrotation
												JOINT LeftHandThumb3
												{
													OFFSET 4.614891 -2.664413 2.664409
													CHANNELS 3 Xrotation Yrotation Zrotation
													JOINT LeftHandThumb4
													{
														OFFSET 4.432465 -2.559082 2.559083
														CHANNELS 3 Xrotation Yrotation Zrotation
														End Site
														{
															OFFSET 0.000000 0.000000 0.000000
														}
													}
												}
											}
										}
										JOINT LeftHandIndex1
										{
											OFFSET 26.467674 0.187653 6.405298
											CHANNELS 3 Xrotation Yrotation Zrotation
											JOINT LeftHandIndex2
											{
												OFFSET 8.792900 0.000000 0.000000
												CHANNELS 3 Xrotation Yrotation Zrotation
												JOINT LeftHandIndex3
												{
													OFFSET 10.075203 0.000000 0.000000
													CHANNELS 3 Xrotation Yrotation Zrotation
													End Site
													{
														OFFSET 0.000000 0.000000 0.000000
													}
												}
											}
										}
										JOINT LeftHandMiddle1
										{
											OFFSET 25.764404 0.000000 0.000000
											CHANNELS 3 Xrotation Yrotation Zrotation
											JOINT LeftHandMiddle2
											{
												OFFSET 9.393974 0.000000 0.000000
												CHANNELS 3 Xrotation Yrotation Zrotation
												JOINT LeftHandMiddle3
												{
													OFFSET 10.771950 0.000000 0.000000
													CHANNELS 3 Xrotation Yrotation Zrotation
													End Site
													{
														OFFSET 0.000000 0.000000 0.000000
													}
												}
											}
										}
										JOINT LeftHandRing1
										{
											OFFSET 24.660927 0.144547 -6.225808
											CHANNELS 3 Xrotation Yrotation Zrotation
											JOINT LeftHandRing2
											{
												OFFSET 9.393799 0.000000 0.000000
												CHANNELS 3 Xrotation Yrotation Zrotation
												JOINT LeftHandRing3
												{
													OFFSET 9.928497 0.000000 0.000000
													CHANNELS 3 Xrotation Yrotation Zrotation
													End Site
													{
														OFFSET 0.000000 0.000000 0.000000
													}
												}
											}
										}
										JOINT LeftHandPinky1
										{
											OFFSET 23.655350 0.125290 -12.815412
											CHANNELS 3 Xrotation Yrotation Zrotation
											JOINT LeftHandPinky2
											{
												OFFSET 8.425102 0.000000 0.000000
												CHANNELS 3 Xrotation Yrotation Zrotation
												JOINT LeftHandPinky3
												{
													OFFSET 8.147003 0.000000 0.000000
													CHANNELS 3 Xrotation Yrotation Zrotation
													End Site
													{
														OFFSET 0.000000 0.000000 0.000000
													}
												}
											}
										}
									}
								}
							}
						}
					}
					JOINT RightShoulder
					{
						OFFSET -3.249400 8.794197 -1.372250
						CHANNELS 3 Xrotation Yrotation Zrotation
						JOINT RightShoulder_split
						{
							OFFSET -3.249400 8.794197 -1.372250
							CHANNELS 3 Xrotation Yrotation Zrotation
							JOINT RightArm
							{
								OFFSET -11.953299 -2.279007 -0.146200
								CHANNELS 3 Xrotation Yrotation Zrotation
								JOINT RightForeArm
								{
									OFFSET -18.448900 0.000000 0.000000
									CHANNELS 3 Xrotation Yrotation Zrotation
									JOINT RightHand
									{
										OFFSET -29.527802 0.000000 0.000000
										CHANNELS 3 Xrotation Yrotation Zrotation
										JOINT RightHandThumb1
										{
											OFFSET -10.739754 -2.369614 9.225399
											CHANNELS 3 Xrotation Yrotation Zrotation
											JOINT RightHandThumb2
											{
												OFFSET -4.926170 -2.844131 2.844125
												CHANNELS 3 Xrotation Yrotation Zrotation
												JOINT RightHandThumb3
												{
													OFFSET -4.614891 -2.664413 2.664409
													CHANNELS 3 Xrotation Yrotation Zrotation
													JOINT RightHandThumb4
													{
														OFFSET -4.432465 -2.559082 2.559083
														CHANNELS 3 Xrotation Yrotation Zrotation
														End Site
														{
															OFFSET 0.000000 0.000000 0.000000
														}
													}
												}
											}
										}
										JOINT RightHandIndex1
										{
											OFFSET -26.467674 0.187653 6.405298
											CHANNELS 3 Xrotation Yrotation Zrotation
											JOINT RightHandIndex2
											{
												OFFSET -8.792900 0.000000 0.000000
												CHANNELS 3 Xrotation Yrotation Zrotation
												JOINT RightHandIndex3
												{
													OFFSET -10.075203 0.000000 0.000000
													CHANNELS 3 Xrotation Yrotation Zrotation
													End Site
													{
														OFFSET 0.000000 0.000000 0.000000
													}
												}
											}
										}
										JOINT RightHandMiddle1
										{
											OFFSET -25.764404 0.000000 0.000000
											CHANNELS 3 Xrotation Yrotation Zrotation
											JOINT RightHandMiddle2
											{
												OFFSET -9.393974 0.000000 0.000000
												CHANNELS 3 Xrotation Yrotation Zrotation
												JOINT RightHandMiddle3
												{
													OFFSET -10.771950 0.000000 0.000000
													CHANNELS 3 Xrotation Yrotation Zrotation
													End Site
													{
														OFFSET 0.000000 0.000000 0.000000
													}
												}
											}
										}
										JOINT RightHandRing1
										{
											OFFSET -24.660927 0.144547 -6.225808
											CHANNELS 3 Xrotation Yrotation Zrotation
											JOINT RightHandRing2
											{
												OFFSET -9.393799 0.000000 0.000000
												CHANNELS 3 Xrotation Yrotation Zrotation
												JOINT RightHandRing3
												{
													OFFSET -9.928497 0.000000 0.000000
													CHANNELS 3 Xrotation Yrotation Zrotation
													End Site
													{
														OFFSET 0.000000 0.000000 0.000000
													}
												}
											}
										}
										JOINT RightHandPinky1
										{
											OFFSET -23.655350 0.125290 -12.815412
											CHANNELS 3 Xrotation Yrotation Zrotation
											JOINT RightHandPinky2
											{
												OFFSET -8.425102 0.000000 0.000000
												CHANNELS 3 Xrotation Yrotation Zrotation
												JOINT RightHandPinky3
												{
													OFFSET -8.147003 0.000000 0.000000
													CHANNELS 3 Xrotation Yrotation Zrotation
													End Site
													{
														OFFSET 0.000000 0.000000 0.000000
													}
												}
											}
										}
									}
								}
							}
						}
					}
				}
			}
		}
	}
	JOINT LeftUpLeg
	{
		OFFSET 11.394100 -6.187798 -0.413800
		CHANNELS 3 Xrotation Yrotation Zrotation
		JOINT LeftLeg
		{
			OFFSET 0.430247 -32.302673 3.732800
			CHANNELS 3 Xrotation Yrotation Zrotation
			JOINT LeftFoot
			{
				OFFSET -0.430247 -48.264931 -6.423300
				CHANNELS 3 Xrotation Yrotation Zrotation
				JOINT LeftToeBase
				{
					OFFSET 4.230900 -16.068199 23.438400
					CHANNELS 3 Xrotation Yrotation Zrotation
					JOINT LeftToe_End
					{
						OFFSET 4.510700 0.695400 19.974600
						CHANNELS 3 Xrotation Yrotation Zrotation
						End Site
						{
							OFFSET 0.000000 0.000000 0.000000
						}
					}
				}
			}
		}
	}
	JOINT RightUpLeg
	{
		OFFSET -11.333700 -6.187798 -0.413800
		CHANNELS 3 Xrotation Yrotation Zrotation
		JOINT RightLeg
		{
			OFFSET -0.430392 -32.302628 3.733000
			CHANNELS 3 Xrotation Yrotation Zrotation
			JOINT RightFoot
			{
				OFFSET 0.430392 -48.264973 -6.423500
				CHANNELS 3 Xrotation Yrotation Zrotation
				JOINT RightToeBase
				{
					OFFSET -4.230900 -16.068199 23.438400
					CHANNELS 3 Xrotation Yrotation Zrotation
					JOINT RightToe_End
					{
						OFFSET -4.510700 0.695400 19.974600
						CHANNELS 3 Xrotation Yrotation Zrotation
						End Site
						{
							OFFSET 0.000000 0.000000 0.000000
						}
					}
				}
			}
		}
	}
}
MOTION
Frames: 4
Frame Time: 0.016667
-0.058750 100.437637 0.475771 1.893926 -2.204678 -0.129193 2.071109 0.290268 0.885191 3.430434 -0.015269 0.185037 0.000000 0.000000 0.000000 3.430502 0.005499 0.178976 -3.527216 -0.011364 -0.032778 -2.723276 -0.261568 0.276206 0.000000 -0.000000 -0.000000 0.742833 8.952357 -13.053725 0.000000 0.000000 0.000000 10.737611 -6.254789 -54.002611 0.000000 -32.994243 -0.000012 3.018199 -1.471483 -4.081421 -0.482880 3.821567 13.866280 21.372709 38.839847 0.020914 -0.475010 -2.422449 17.056985 -0.000003 0.000000 0.000002 1.076656 5.650978 -31.107103 2.579634 4.853692 -55.959019 0.000001 -0.000001 -0.000001 2.297560 7.098880 -41.286619 3.978837 5.544428 -71.308022 0.000000 0.000001 0.000001 2.297560 7.098880 -41.286612 3.978833 5.544424 -71.308036 0.000000 0.000000 -0.000000 2.296092 7.100165 -41.286421 3.978845 5.544424 -71.308042 -0.000000 -0.000002 0.000000 1.078068 -8.352865 11.371666 0.000000 0.000000 0.000000 3.407869 18.890951 61.317327 -0.000005 23.538773 0.000029 1.182694 -2.960230 -1.406717 -5.104759 0.227805 -17.972062 16.981319 -29.890899 7.725545 -6.337751 -28.133418 -4.845029 0.000001 -0.000000 -0.000000 0.285283 -3.752860 14.876243 3.775964 -4.573222 79.081276 0.000000 0.000001 -0.000001 1.456651 -5.863605 32.031617 4.654522 -4.657171 89.967354 -0.000001 -0.000001 -0.000001 1.456648 -5.863606 32.031606 4.654522 -4.657170 89.967361 -0.000000 0.000001 0.000000 1.456652 -5.863609 32.031606 4.654523 -4.657172 89.967361 -0.000000 0.000002 0.000002 -7.789295 -5.088894 9.890721 13.511612 0.083272 -1.559399 -5.237378 14.457950 -8.907759 -0.003553 0.000001 -0.000002 -0.000000 0.000000 -0.000000 -7.262702 -4.849296 -9.234996 14.461583 -0.346602 0.060207 -7.627516 -10.754479 8.041170 0.109676 -0.000005 -0.000000 0.000000 -0.000000 0.000000 
-0.177079 100.423744 0.411370 1.872881 -2.362879 0.088545 2.291589 -0.002235 0.729450 3.107405 -0.084774 0.120758 0.000000 0.000000 0.000000 3.107846 -0.065907 0.115675 -3.226257 0.031549 -0.023639 -2.059489 0.093460 0.433889 0.000001 0.000000 -0.000000 0.736512 8.806730 -13.031571 0.000000 0.000000 0.000000 10.933042 -6.745923 -54.051020 0.000000 -32.945288 -0.000004 3.215426 -1.441556 -4.145369 -1.226164 4.012608 13.215960 20.501569 38.197792 1.391608 -0.101250 -3.052169 17.764137 -0.000001 -0.000001 0.000002 1.051747 5.612613 -30.821235 2.451663 4.765049 -54.432779 0.000000 -0.000001 -0.000005 2.190045 7.000230 -40.472716 3.756125 5.464384 -68.986550 -0.000000 0.000000 -0.000000 2.198443 7.006924 -40.576276 3.751198 5.462496 -68.934777 -0.000000 -0.000001 -0.000000 2.205384 7.014867 -40.679630 3.756120 5.464382 -68.986543 -0.000000 -0.000001 -0.000000 1.091566 -8.197194 11.485089 0.000000 0.000000 0.000000 3.504185 18.923102 61.185968 -0.000006 23.701520 0.000026 1.551634 -2.868871 -1.163870 -5.642954 -0.147095 -17.426155 16.936680 -29.156944 6.578084 -5.748143 -26.936412 -5.700913 -0.000003 0.000003 -0.000001 0.293422 -3.774308 15.343515 3.548773 -4.523634 76.216988 -0.000000 -0.000002 0.000000 1.392277 -5.779181 31.586729 4.375152 -4.648639 86.524365 0.000000 0.000001 0.000001 1.398784 -5.785312 31.693167 4.370826 -4.648385 86.471083 -0.000000 0.000000 -0.000000 1.399734 -5.794874 31.799015 4.375151 -4.648640 86.524386 -0.000000 0.000003 -0.000001 -9.690760 -5.579848 9.670587 16.370024 0.012178 -1.598001 -4.769104 14.603764 -9.370328 -2.373250 -0.000004 0.000000 0.000000 0.000001 0.000000 -7.609675 -4.819008 -9.425014 14.899334 -0.207360 0.064327 -7.753130 -10.687042 7.969217 -0.200953 -0.000008 -0.000001 -0.000000 0.000001 0.000000 
-0.424188 100.378395 0.350089 1.851919 -2.500394 0.326473 2.559615 -0.357369 0.560290 2.747828 -0.169164 0.053064 0.000000 0.000000 0.000000 2.748703 -0.152292 0.049085 -2.889077 0.082213 -0.012975 -1.319716 0.514194 0.602907 -0.000000 -0.000000 -0.000000 0.729839 8.654327 -13.018118 0.000000 0.000000 0.000000 11.156654 -7.294851 -54.080659 -0.000001 -32.921041 0.000002 3.429490 -1.421118 -4.175584 -2.021791 4.232562 12.518344 19.606044 37.444504 2.843511 0.282570 -3.726815 18.491226 -0.000002 0.000002 0.000003 1.025034 5.570821 -30.510114 2.320099 4.668497 -52.832989 -0.000001 -0.000000 0.000000 2.077961 6.892796 -39.613243 3.527053 5.371195 -66.560713 0.000000 0.000000 -0.000001 2.094708 6.906832 -39.824333 3.517181 5.366921 -66.455227 0.000000 -0.000000 -0.000000 2.110013 6.922062 -40.035243 3.527050 5.371198 -66.560706 0.000000 0.000002 -0.000000 1.096791 -8.002337 11.568712 0.000000 0.000000 0.000000 3.614131 18.945276 61.044645 -0.000006 23.957204 0.000023 1.916262 -2.796687 -0.913624 -6.220039 -0.561322 -16.846195 16.880377 -28.337801 5.350613 -5.130531 -25.610254 -6.616689 0.000000 0.000001 -0.000000 0.301837 -3.796162 15.831048 3.306234 -4.457341 73.119948 -0.000000 0.000001 0.000001 1.323354 -5.686538 31.092869 4.074448 -4.620650 82.804296 -0.000000 -0.000001 0.000001 1.336521 -5.699513 31.313788 4.065545 -4.619521 82.693770 -0.000000 -0.000001 0.000001 1.339909 -5.718446 31.533751 4.074460 -4.620652 82.804296 -0.000000 -0.000002 0.000000 -12.232502 -5.401237 9.699889 19.864615 -0.061075 -1.646380 -3.889956 13.882559 -10.122238 -5.458062 -0.000002 0.000001 -0.000000 0.000000 -0.000000 -8.103826 -4.750701 -9.564314 15.623634 -0.069712 0.079057 -8.030589 -10.655982 7.803946 -0.267544 0.000009 0.000000 -0.000000 -0.000001 0.000000 
-0.696111 100.155235 0.295982 1.831462 -2.634575 0.470020 2.851989 -0.735315 0.484187 2.373875 -0.260962 -0.016101 0.000000 0.000000 0.000000 2.375219 -0.246128 -0.018902 -2.534350 0.136653 -0.001104 -0.540679 0.969613 0.774560 -0.000000 0.000000 0.000000 0.723121 8.496004 -13.005186 0.000000 0.000000 0.000000 11.389998 -7.878147 -54.103971 0.000002 -32.909019 -0.000014 3.676868 -1.401122 -4.194156 -2.847527 4.478024 11.792762 18.719730 36.603851 4.328840 0.658173 -4.423260 19.224630 0.000002 -0.000001 -0.000001 0.997334 5.526782 -30.182941 2.187623 4.565367 -51.187200 -0.000001 0.000003 0.000000 1.964218 6.778787 -38.725219 3.296141 5.265520 -64.069838 0.000000 0.000002 -0.000001 1.989068 6.800762 -39.046286 3.281439 5.258378 -63.909486 0.000001 -0.000000 -0.000000 2.012549 6.823827 -39.367185 3.296134 5.265511 -64.069831 0.000000 -0.000001 -0.000000 1.096977 -7.781050 11.642707 0.000000 0.000000 0.000000 3.743082 18.979036 60.878869 0.000005 24.271415 -0.000008 2.271885 -2.732254 -0.657010 -6.820223 -1.005236 -16.249163 16.817223 -27.461892 4.075790 -4.497560 -24.206313 -7.576614 -0.000002 -0.000000 -0.000002 0.310439 -3.818220 16.330806 3.056557 -4.374046 69.877801 -0.000001 0.000003 0.000002 1.252317 -5.588263 30.568167 3.762432 -4.570597 78.911498 -0.000000 -0.000001 -0.000000 1.272039 -5.608665 30.908536 3.748864 -4.567930 78.741146 -0.000000 0.000000 0.000000 1.278698 -5.636928 31.247634 3.762435 -4.570597 78.911498 0.000000 -0.000002 0.000001 -17.512936 -4.971386 9.132676 27.387935 0.698788 -1.657556 -3.603038 12.547402 -8.747293 -10.826740 0.000005 0.000002 0.000000 0.000001 0.000000 -9.065116 -4.580698 -9.652237 17.178636 0.123703 0.124775 -8.647462 -10.708167 7.624641 -0.120330 0.000006 0.000001 -0.000000 0.000001 0.000000 
